<svg width="24" height="24" viewBox="0 0 24 24" fill="none" xmlns="http://www.w3.org/2000/svg">
<path d="M14.1987 12.0197L23.544 2.67425C24.1521 2.06636 24.1521 1.08345 23.544 0.475633C22.9361 -0.132259 21.9532 -0.132259 21.3454 0.475633L11.9999 9.82099L2.65475 0.475633C2.04657 -0.132259 1.06403 -0.132259 0.456138 0.475633C-0.152046 1.08353 -0.152046 2.06636 0.456138 2.67425L9.8012 12.0197L0.456211 21.365C-0.151973 21.9729 -0.151973 22.9558 0.456211 23.5637C0.600405 23.7083 0.771753 23.8229 0.960408 23.9011C1.14906 23.9793 1.35131 24.0194 1.55552 24.0192C1.95349 24.0192 2.35161 23.8669 2.65483 23.5637L11.9999 14.2183L21.3454 23.5637C21.4896 23.7082 21.661 23.8229 21.8496 23.9011C22.0383 23.9793 22.2405 24.0194 22.4447 24.0192C22.8427 24.0192 23.2408 23.8669 23.544 23.5637C24.1521 22.9558 24.1521 21.9729 23.544 21.365L14.1987 12.0197Z" fill="white"/>
</svg>
