<svg width="20" height="21" viewBox="0 0 20 21" fill="none" xmlns="http://www.w3.org/2000/svg">
<path d="M10 20.5C4.48594 20.5 0 16.0141 0 10.5C0 4.98594 4.48594 0.5 10 0.5C15.5141 0.5 20 4.98594 20 10.5C20 16.0141 15.5141 20.5 10 20.5ZM10 1.92852C5.27375 1.92852 1.42852 5.77375 1.42852 10.5C1.42852 15.2262 5.27375 19.0715 10 19.0715C14.7262 19.0715 18.5715 15.2262 18.5715 10.5C18.5715 5.77375 14.7262 1.92852 10 1.92852Z" fill="white"/>
<path d="M13.571 14.7857C13.3882 14.7857 13.2054 14.716 13.066 14.5764L5.92319 7.43359C5.64409 7.15449 5.64409 6.70254 5.92319 6.42363C6.2021 6.14469 6.65421 6.14453 6.93315 6.42363L14.0759 13.5664C14.355 13.8455 14.355 14.2975 14.0759 14.5764C14.0097 14.6428 13.9311 14.6956 13.8444 14.7315C13.7578 14.7674 13.6648 14.7859 13.571 14.7857Z" fill="white"/>
<path d="M6.42808 14.7857C6.24526 14.7857 6.06265 14.716 5.92319 14.5764C5.64409 14.2975 5.64409 13.8454 5.92319 13.5664L13.066 6.42363C13.3451 6.14453 13.797 6.14453 14.0759 6.42363C14.3549 6.70254 14.355 7.15465 14.0759 7.43359L6.93315 14.5764C6.86693 14.6428 6.78821 14.6956 6.70153 14.7315C6.61484 14.7674 6.52191 14.7859 6.42808 14.7857Z" fill="white"/>
</svg>
