<svg width="18" height="17" viewBox="0 0 18 17" fill="none" xmlns="http://www.w3.org/2000/svg">
<path d="M3.27344 1.07812H11.8164C12.5039 1.07812 13.082 1.54687 13.25 2.17969H14.207C14.0234 1.02344 13.0195 0.140625 11.8164 0.140625H3.27344C1.9375 0.140625 0.851562 1.22656 0.851562 2.5625V11.5664C0.851562 12.7852 1.75781 13.7969 2.92969 13.9648V13.0117C2.27734 12.8555 1.78906 12.2656 1.78906 11.5664V2.5625C1.78906 1.74609 2.45312 1.07812 3.27344 1.07812Z" fill="white"/>
<path d="M14.9375 3.02344C14.8672 3.01563 6.18359 3.01562 6.18359 3.01562C4.84766 3.01562 3.76172 4.10156 3.76172 5.4375C3.76172 5.4375 3.76562 14.5781 3.76953 14.6484C3.875 15.8867 4.91797 16.8633 6.18359 16.8633H14.7266C16.0625 16.8633 17.1484 15.7773 17.1484 14.4414V5.43359C17.1484 4.17188 16.1758 3.12891 14.9375 3.02344ZM16.2109 14.4375C16.2109 15.2539 15.5469 15.9219 14.7266 15.9219H6.18359C5.36328 15.9219 4.69922 15.2539 4.69922 14.4375V5.43359C4.69922 4.61328 5.36328 3.94922 6.18359 3.94922H14.7266C15.5469 3.94922 16.2109 4.61328 16.2109 5.43359V14.4375Z" fill="white"/>
</svg>
