<svg width="30" height="22" viewBox="0 0 30 22" fill="none" xmlns="http://www.w3.org/2000/svg">
<path d="M7.5 2C7.5 1.1716 8.1716 0.5 9 0.5H28.5C29.3284 0.5 30 1.1716 30 2C30 2.8284 29.3284 3.5 28.5 3.5H9C8.1716 3.5 7.5 2.82834 7.5 2ZM28.5 9.5H1.5C0.671602 9.5 0 10.1717 0 11C0 11.8284 0.671602 12.5 1.5 12.5H28.5C29.3284 12.5 30 11.8284 30 11C30 10.1717 29.3284 9.5 28.5 9.5ZM28.5 18.5H15C14.1717 18.5 13.5 19.1716 13.5 20C13.5 20.8283 14.1717 21.5 15 21.5H28.5C29.3284 21.5 30 20.8283 30 20C30 19.1716 29.3284 18.5 28.5 18.5Z" fill="white"/>
</svg>
