<svg width="391" height="881" viewBox="0 0 391 881" fill="none" xmlns="http://www.w3.org/2000/svg">
<g clip-path="url(#clip0_3864_5709)">
<path d="M159.77 190.34L166.32 180.06L153.56 187.16L159.77 190.34Z" fill="white"/>
<path d="M193.6 139.72L186.9 135.45V144.7L193.6 147.61V139.72Z" fill="white"/>
<path d="M125.31 385.53L194.27 424.46L193.74 403.23L125.38 363.73L125.31 385.53Z" fill="white"/>
<path d="M199.6 268.48L226.67 252.86L292.4 214.94V192.45L199.6 245.71V268.48Z" fill="white"/>
<path d="M196.6 134.52L198.75 133.15L203.07 130.39L196.6 127.38L190.13 130.39L194.45 133.15L196.6 134.52Z" fill="white"/>
<path d="M193.6 238.8V154.56V154.14L190.72 152.9L151.42 214.63L193.6 238.8Z" fill="white"/>
<path d="M202.08 152.48L199.6 153.91V238.76L241.01 214.65L230.29 197.54C230.03 197.3 229.81 197.01 229.65 196.67C229.59 196.55 229.56 196.43 229.52 196.3L202.09 152.5C202.09 152.5 202.09 152.5 202.09 152.49L202.08 152.48Z" fill="white"/>
<path d="M233.57 191.45L238.87 188.89L227.86 182.33L233.57 191.45Z" fill="white"/>
<path d="M199.6 146.99L206.3 143.14V135.45L199.6 139.72V146.99Z" fill="white"/>
<path d="M242.2 193.95L236.77 196.56L242.2 205.23V193.95Z" fill="white"/>
<path d="M199.6 275.41L199.66 358.56L199.69 396.23L268.47 355.79C268.47 355.79 268.47 355.79 268.48 355.79C268.48 355.79 268.48 355.79 268.5 355.78C268.63 355.71 268.76 355.67 268.89 355.62C269 355.58 269.1 355.52 269.21 355.49C269.25 355.48 269.29 355.48 269.32 355.47L292.38 341.97V221.88L279.62 229.24L199.59 275.41H199.6Z" fill="white"/>
<path d="M200.27 424.5L267 385.26V363.78L199.74 403.17L199.85 407.38L200.27 424.5Z" fill="white"/>
<path d="M220.88 171.19L242.2 183.89V162.96L215.68 162.88L220.88 171.19Z" fill="white"/>
<path d="M199.7 481.36L268.45 439.9C268.57 439.83 268.71 439.79 268.84 439.73L316.6 410.97V392.66L199.7 460V481.35V481.36Z" fill="white"/>
<path d="M199.7 488.37V536.64L267 498.72V447.85L199.7 488.37Z" fill="white"/>
<path d="M199.7 543.53V765.66L389.39 655.52L269.24 504.34L199.7 543.53Z" fill="white"/>
<path d="M314.19 67.38L307.6 63.75L301.02 67.38L307.6 71.16L314.19 67.38Z" fill="white"/>
<path d="M248.2 160.94V201.59L296 94.46L248.2 160.94Z" fill="white"/>
<path d="M304.33 83.45L304.6 83.59V76.36L297.9 72.51V80.26L302.75 82.67L304.33 83.45Z" fill="white"/>
<path d="M251.65 208.58L292.61 185.41L304.32 90.54L253.91 203.52L251.65 208.58Z" fill="white"/>
<path d="M310.6 82.95L317.3 78.68V72.51L310.6 76.36V82.95Z" fill="white"/>
<path d="M185.14 150.48L182.7 149.42C181.6 148.94 180.89 147.86 180.89 146.67V129.97C180.89 129.97 180.9 129.9 180.9 129.87C180.9 129.84 180.9 129.8 180.9 129.77C180.9 129.67 180.94 129.57 180.96 129.47C180.98 129.33 181 129.2 181.04 129.07C181.08 128.94 181.14 128.83 181.19 128.71C181.25 128.59 181.3 128.47 181.37 128.36C181.44 128.25 181.53 128.15 181.61 128.05C181.7 127.95 181.78 127.85 181.88 127.76C181.98 127.67 182.09 127.6 182.2 127.52C182.29 127.46 182.36 127.39 182.45 127.34C182.48 127.32 182.51 127.32 182.55 127.3C182.58 127.29 182.6 127.26 182.63 127.25L195.33 121.35C196.13 120.98 197.06 120.98 197.86 121.35L210.56 127.25C210.56 127.25 210.61 127.29 210.64 127.3C210.67 127.32 210.71 127.32 210.74 127.34C210.83 127.39 210.9 127.46 210.99 127.52C211.1 127.6 211.21 127.67 211.31 127.76C211.41 127.85 211.49 127.95 211.58 128.06C211.66 128.16 211.75 128.26 211.82 128.37C211.89 128.48 211.94 128.6 212 128.72C212.06 128.84 212.11 128.96 212.15 129.08C212.19 129.21 212.21 129.34 212.23 129.48C212.25 129.58 212.28 129.67 212.29 129.78C212.29 129.81 212.29 129.85 212.29 129.88C212.29 129.91 212.3 129.95 212.3 129.98V144.88C212.3 145.95 211.73 146.95 210.8 147.48L207.29 149.49L211.91 156.87L241.08 156.96L199.27 26.53L198.21 27.2C198.21 27.2 198.2 27.2 198.19 27.21C198.19 27.21 198.19 27.21 198.18 27.21C198.18 27.21 198.16 27.21 198.15 27.22C197.92 27.36 197.67 27.47 197.42 27.54C197.42 27.54 197.41 27.54 197.4 27.54C197.14 27.61 196.87 27.65 196.6 27.65C196.36 27.65 196.12 27.62 195.89 27.56C195.81 27.54 195.74 27.5 195.67 27.48C195.54 27.44 195.4 27.4 195.27 27.34L193.79 26.61L151.27 156.67L181.14 156.76L185.15 150.46L185.14 150.48Z" fill="white"/>
<path d="M125.7 498.71L193.7 536.66V488.41L125.7 449.38V498.71Z" fill="white"/>
<path d="M0 661.55V770.23L193.7 880.32V772.61L122.2 731.61L0 661.55Z" fill="white"/>
<path d="M123.45 504.33L1.54004 655.52L82.6 702L193.7 765.7V543.54L192.15 542.67L123.45 504.33Z" fill="white"/>
<path d="M90.8701 90.91L100.53 185.44L140.94 208.62L90.8701 90.91Z" fill="white"/>
<path d="M123.16 355.47C123.3 355.51 123.44 355.58 123.58 355.64C123.68 355.68 123.79 355.71 123.89 355.77L193.68 396.25L193.59 275.4L100.69 221.86V342.54L123.04 355.46C123.04 355.46 123.11 355.46 123.15 355.48L123.16 355.47Z" fill="white"/>
<path d="M76.7002 414.34L124.04 441.51C124.09 441.54 124.15 441.55 124.2 441.57L193.71 481.49V460.01L76.7102 392.47V414.34H76.7002Z" fill="white"/>
<path d="M199.7 772.6V880.26L390.9 769.15V661.59L219.56 761.07L199.7 772.6Z" fill="white"/>
<path d="M273 363.61V386.97C273 388.03 272.44 389.02 271.52 389.56L198.95 432.24H198.93C198.75 432.35 198.57 432.42 198.38 432.48C198.32 432.5 198.26 432.54 198.2 432.56C198.09 432.59 197.98 432.59 197.87 432.61C197.72 432.63 197.58 432.67 197.43 432.67C197.43 432.67 197.43 432.67 197.42 432.67C197.2 432.67 196.98 432.64 196.76 432.59C196.73 432.59 196.71 432.59 196.68 432.58C196.58 432.56 196.49 432.5 196.4 432.47C196.26 432.42 196.11 432.38 195.97 432.3C195.97 432.3 195.97 432.3 195.96 432.3L120.86 389.9C119.91 389.37 119.33 388.36 119.34 387.28L119.42 363.67L79.6797 387.25L196.74 454.82L313.67 387.46L273.04 363.62L273 363.61Z" fill="white"/>
<path d="M150.2 192.18V205.37L156.53 195.42L150.2 192.18Z" fill="white"/>
<path d="M199.6 19.2L206.3 14.93V8.76001L199.6 12.61V19.2Z" fill="white"/>
<path d="M193.6 12.61L186.9 8.76001V16.51L193.6 19.84V12.61Z" fill="white"/>
<path d="M203.19 3.63L196.6 0L190.02 3.63L196.6 7.41L203.19 3.63Z" fill="white"/>
<path d="M88.4999 63.75L81.9199 67.38L88.4999 71.16L88.8299 70.97L95.0799 67.38L88.4999 63.75Z" fill="white"/>
<path d="M177.32 162.77L150.2 162.68V182.17L173.09 169.41L177.32 162.77Z" fill="white"/>
<path d="M100.7 214.94L193.6 268.48V245.71L145.71 218.28L100.7 192.45V214.94Z" fill="white"/>
<path d="M78.7998 80.26L85.4998 83.59V76.36L78.7998 72.51V80.26Z" fill="white"/>
<path d="M91.5 82.95L98.2 78.68V72.51L91.5 76.36V82.95Z" fill="white"/>
<path d="M144.2 200.96V160.64L101.94 101.6L137 184.04L144.2 200.96Z" fill="white"/>
</g>
<defs>
<clipPath id="clip0_3864_5709">
<rect width="390.9" height="880.32" fill="white"/>
</clipPath>
</defs>
</svg>
