<svg width="30" height="30" viewBox="0 0 30 30" fill="none" xmlns="http://www.w3.org/2000/svg">
<path d="M26.5552 3.20316C22.8835 4.72364 7.14052 11.2447 2.79059 13.0221C-0.126745 14.1606 1.58094 15.2279 1.58094 15.2279C1.58094 15.2279 4.07114 16.0816 6.20567 16.722C8.34021 17.3624 9.47866 16.6508 9.47866 16.6508L19.5109 9.89123C23.0684 7.47223 22.2147 9.46438 21.361 10.3181C19.5109 12.1681 16.4515 15.0852 13.8901 17.4333C12.7517 18.4294 13.3209 19.2834 13.8189 19.7102C15.669 21.2755 20.7206 24.4773 21.0053 24.6909C22.5085 25.7549 25.4651 27.2868 25.9148 24.0505L27.6937 12.8798C28.2629 9.10873 28.8322 5.62216 28.9033 4.62608C29.1166 2.20708 26.5552 3.20316 26.5552 3.20316Z" fill="white"/>
</svg>
